<svg width="72" height="72" viewBox="0 0 72 72" fill="none" xmlns="http://www.w3.org/2000/svg">
<path d="M6 27V21C6 12 12 6 21 6H51C60 6 66 12 66 21V27" stroke="#2190EC" stroke-width="3" stroke-miterlimit="10" stroke-linecap="round" stroke-linejoin="round"/>
<path d="M6 45V51C6 60 12 66 21 66H51C60 66 66 60 66 51V45" stroke="#2190EC" stroke-width="3" stroke-miterlimit="10" stroke-linecap="round" stroke-linejoin="round"/>
<path d="M20.0996 27.78L35.9996 36.9901L51.7796 27.8401" stroke="#2190EC" stroke-width="3" stroke-linecap="round" stroke-linejoin="round"/>
<path d="M36 53.3101V36.96" stroke="#2190EC" stroke-width="3" stroke-linecap="round" stroke-linejoin="round"/>
<path d="M32.2797 18.87L22.6797 24.2101C20.5197 25.4101 18.7197 28.4401 18.7197 30.9301V41.1001C18.7197 43.5901 20.4897 46.6201 22.6797 47.8201L32.2797 53.16C34.3197 54.3 37.6797 54.3 39.7497 53.16L49.3497 47.8201C51.5097 46.6201 53.3097 43.5901 53.3097 41.1001V30.9301C53.3097 28.4401 51.5397 25.4101 49.3497 24.2101L39.7497 18.87C37.6797 17.7 34.3197 17.7 32.2797 18.87Z" stroke="#2190EC" stroke-width="3" stroke-linecap="round" stroke-linejoin="round"/>
</svg>
