<svg width="72" height="72" viewBox="0 0 72 72" fill="none" xmlns="http://www.w3.org/2000/svg">
<path d="M59.9102 30H11.9102V54C11.9102 63 14.9102 66 23.9102 66H47.9102C56.9102 66 59.9102 63 59.9102 54V30Z" stroke="#2190EC" stroke-width="3" stroke-miterlimit="10" stroke-linecap="round" stroke-linejoin="round"/>
<path d="M64.5 21V24C64.5 27.3 62.91 30 58.5 30H13.5C8.91 30 7.5 27.3 7.5 24V21C7.5 17.7 8.91 15 13.5 15H58.5C62.91 15 64.5 17.7 64.5 21Z" stroke="#2190EC" stroke-width="3" stroke-miterlimit="10" stroke-linecap="round" stroke-linejoin="round"/>
<path d="M34.9203 15H18.3603C17.3403 13.89 17.3703 12.18 18.4503 11.1L22.7103 6.84001C23.8203 5.73001 25.6503 5.73001 26.7603 6.84001L34.9203 15Z" stroke="#2190EC" stroke-width="3" stroke-miterlimit="10" stroke-linecap="round" stroke-linejoin="round"/>
<path d="M53.6098 15H37.0498L45.2098 6.84001C46.3198 5.73001 48.1498 5.73001 49.2598 6.84001L53.5198 11.1C54.5998 12.18 54.6298 13.89 53.6098 15Z" stroke="#2190EC" stroke-width="3" stroke-miterlimit="10" stroke-linecap="round" stroke-linejoin="round"/>
<path d="M26.8203 30V45.42C26.8203 47.82 29.4603 49.23 31.4703 47.94L34.2903 46.08C35.3103 45.42 36.6003 45.42 37.5903 46.08L40.2603 47.88C42.2403 49.2 44.9103 47.79 44.9103 45.39V30H26.8203Z" stroke="#2190EC" stroke-width="3" stroke-miterlimit="10" stroke-linecap="round" stroke-linejoin="round"/>
</svg>
