<svg width="72" height="72" viewBox="0 0 72 72" fill="none" xmlns="http://www.w3.org/2000/svg">
<path d="M32.2496 7.34984C34.3196 5.57984 37.7096 5.57984 39.8096 7.34984L44.5497 11.4302C45.4497 12.2102 47.1296 12.8401 48.3296 12.8401H53.4296C56.6096 12.8401 59.2196 15.4499 59.2196 18.6299V23.7301C59.2196 24.9001 59.8496 26.6101 60.6296 27.5101L64.7097 32.25C66.4797 34.32 66.4797 37.71 64.7097 39.81L60.6296 44.5499C59.8496 45.4499 59.2196 47.1299 59.2196 48.3299V53.4302C59.2196 56.6102 56.6096 59.22 53.4296 59.22H48.3296C47.1596 59.22 45.4497 59.8499 44.5497 60.6299L39.8096 64.7098C37.7396 66.4798 34.3496 66.4798 32.2496 64.7098L27.5097 60.6299C26.6097 59.8499 24.9297 59.22 23.7297 59.22H18.5396C15.3596 59.22 12.7496 56.6102 12.7496 53.4302V48.2999C12.7496 47.1299 12.1197 45.4499 11.3697 44.5499L7.31965 39.78C5.57965 37.71 5.57965 34.35 7.31965 32.28L11.3697 27.5101C12.1197 26.6101 12.7496 24.9301 12.7496 23.7601V18.6299C12.7496 15.4499 15.3596 12.8401 18.5396 12.8401H23.7297C24.8997 12.8401 26.6097 12.2102 27.5097 11.4302L32.2496 7.34984Z" stroke="#2190EC" stroke-width="3" stroke-linecap="round" stroke-linejoin="round"/>
<path d="M29.6704 44.46L34.0204 47.8199C34.5904 48.3899 35.8504 48.66 36.6904 48.66H42.0004C43.6804 48.66 45.5104 47.4001 45.9304 45.7201L49.2903 35.46C49.9803 33.51 48.7204 31.8 46.6204 31.8H41.0104C40.1704 31.8 39.4804 31.1102 39.6004 30.1202L40.2903 25.6202C40.5603 24.3602 39.7204 22.9501 38.4604 22.5301C37.3504 22.1101 35.9404 22.68 35.3704 23.52L29.6104 32.0699" stroke="#2190EC" stroke-width="3" stroke-miterlimit="10"/>
<path d="M22.5 44.4598V30.72C22.5 28.74 23.34 28.0499 25.32 28.0499H26.73C28.68 28.0499 29.55 28.74 29.55 30.72V44.4598C29.55 46.4098 28.71 47.1299 26.73 47.1299H25.32C23.34 47.1299 22.5 46.4398 22.5 44.4598Z" stroke="#2190EC" stroke-width="3" stroke-linecap="round" stroke-linejoin="round"/>
</svg>
