<svg width="72" height="72" viewBox="0 0 72 72" fill="none" xmlns="http://www.w3.org/2000/svg">
<path d="M64.9796 31.32L62.0396 43.86C59.5196 54.69 54.5396 59.07 45.1796 58.17C43.6796 58.05 42.0596 57.78 40.3196 57.36L35.2796 56.16C22.7696 53.19 18.8996 47.01 21.8396 34.47L24.7796 21.9C25.3796 19.35 26.0996 17.13 26.9996 15.3C30.5096 8.04002 36.4796 6.09002 46.4996 8.46002L51.5096 9.63002C64.0796 12.57 67.9196 18.78 64.9796 31.32Z" stroke="#2190EC" stroke-width="3" stroke-linecap="round" stroke-linejoin="round"/>
<path d="M45.18 58.17C43.32 59.43 40.98 60.48 38.13 61.41L33.39 62.97C21.48 66.81 15.21 63.6 11.34 51.69L7.50005 39.84C3.66005 27.93 6.84005 21.63 18.75 17.79L23.49 16.23C24.72 15.84 25.89 15.51 27 15.3C26.1 17.13 25.38 19.35 24.78 21.9L21.84 34.47C18.9 47.01 22.77 53.19 35.28 56.16L40.32 57.36C42.06 57.78 43.68 58.05 45.18 58.17Z" stroke="#2190EC" stroke-width="3" stroke-linecap="round" stroke-linejoin="round"/>
<path d="M37.9199 25.59L52.4699 29.28" stroke="#2190EC" stroke-width="3" stroke-linecap="round" stroke-linejoin="round"/>
<path d="M34.9805 37.2L43.6805 39.42" stroke="#2190EC" stroke-width="3" stroke-linecap="round" stroke-linejoin="round"/>
</svg>
