<svg width="72" height="72" viewBox="0 0 72 72" fill="none" xmlns="http://www.w3.org/2000/svg">
<path d="M36 45C40.9706 45 45 40.9706 45 36C45 31.0294 40.9706 27 36 27C31.0294 27 27 31.0294 27 36C27 40.9706 31.0294 45 36 45Z" stroke="#2190EC" stroke-width="3" stroke-miterlimit="10" stroke-linecap="round" stroke-linejoin="round"/>
<path d="M6 38.64V33.36C6 30.24 8.55 27.66 11.7 27.66C17.13 27.66 19.35 23.82 16.62 19.11C15.06 16.41 15.99 12.9 18.72 11.34L23.91 8.36999C26.28 6.95999 29.34 7.79999 30.75 10.17L31.08 10.74C33.78 15.45 38.22 15.45 40.95 10.74L41.28 10.17C42.69 7.79999 45.75 6.95999 48.12 8.36999L53.31 11.34C56.04 12.9 56.97 16.41 55.41 19.11C52.68 23.82 54.9 27.66 60.33 27.66C63.45 27.66 66.03 30.21 66.03 33.36V38.64C66.03 41.76 63.48 44.34 60.33 44.34C54.9 44.34 52.68 48.18 55.41 52.89C56.97 55.62 56.04 59.1 53.31 60.66L48.12 63.63C45.75 65.04 42.69 64.2 41.28 61.83L40.95 61.26C38.25 56.55 33.81 56.55 31.08 61.26L30.75 61.83C29.34 64.2 26.28 65.04 23.91 63.63L18.72 60.66C15.99 59.1 15.06 55.59 16.62 52.89C19.35 48.18 17.13 44.34 11.7 44.34C8.55 44.34 6 41.76 6 38.64Z" stroke="#2190EC" stroke-width="3" stroke-miterlimit="10" stroke-linecap="round" stroke-linejoin="round"/>
</svg>
