<svg width="114" height="20" viewBox="0 0 114 20" fill="none" xmlns="http://www.w3.org/2000/svg">
<g clip-path="url(#clip0_2033_720)">
<path d="M1.69672 14.2354C0.565277 13.0898 0 11.6774 0 9.99934C0 8.32122 0.565277 6.9098 1.69672 5.7633C2.82727 4.61768 4.20945 4.04443 5.84238 4.04443C7.4753 4.04443 8.85749 4.61768 9.98804 5.7633C11.1186 6.90892 11.6848 8.32122 11.6848 9.99934V10.7861H2.35946C2.53932 11.7297 2.95131 12.4713 3.59545 13.0109C4.23958 13.5505 4.98915 13.8198 5.84238 13.8198C6.89053 13.8198 7.72959 13.5576 8.35954 13.033C8.64396 12.8231 8.89115 12.5608 9.10114 12.2463H11.5731C11.2586 12.9808 10.8616 13.6028 10.3823 14.1113C9.15341 15.3402 7.64099 15.9542 5.84326 15.9542C4.21034 15.9542 2.82816 15.381 1.6976 14.2354H1.69672ZM2.47198 8.87587H9.21366C9.07899 8.12719 8.72281 7.49014 8.14602 6.96562C7.56922 6.4411 6.80105 6.17884 5.84238 6.17884C5.03345 6.17884 4.314 6.4225 3.68493 6.90892C3.05586 7.39623 2.65095 8.05188 2.47109 8.87498L2.47198 8.87587Z" fill="#2190EC"/>
<path d="M12.5841 4.26953H15.0561L17.5281 13.5957H18.9891L21.4611 4.26953H23.9331L20.7868 15.7301H15.7303L12.5841 4.26953Z" fill="#2190EC"/>
<path d="M26.5281 14.2354C25.3967 13.0898 24.8314 11.6774 24.8314 9.99934C24.8314 8.32122 25.3967 6.9098 26.5281 5.7633C27.6587 4.61768 29.0409 4.04443 30.6738 4.04443C32.3067 4.04443 33.6889 4.61768 34.8195 5.7633C35.95 6.90892 36.5162 8.32122 36.5162 9.99934V10.7861H27.19C27.3699 11.7297 27.7818 12.4713 28.426 13.0109C29.0701 13.5505 29.8197 13.8198 30.6729 13.8198C31.7211 13.8198 32.5601 13.5576 33.1901 13.033C33.4745 12.8231 33.7217 12.5608 33.9317 12.2463H36.4037C36.0891 12.9808 35.6922 13.6028 35.2128 14.1113C33.9839 15.3402 32.4715 15.9542 30.6738 15.9542C29.0409 15.9542 27.6587 15.381 26.5281 14.2354ZM27.3034 8.87587H34.0451C33.9104 8.12719 33.5542 7.49014 32.9774 6.96562C32.4006 6.4411 31.6325 6.17884 30.6738 6.17884C29.8649 6.17884 29.1454 6.4225 28.5164 6.90892C27.8873 7.39623 27.4824 8.05188 27.3025 8.87498L27.3034 8.87587Z" fill="#2190EC"/>
<path d="M38.5389 15.7303V4.26975H40.8984V5.95495H41.0109C41.1757 5.64041 41.4158 5.34094 41.7304 5.05565C42.4188 4.4567 43.2286 4.15723 44.1572 4.15723H45.5057V6.40416H44.0446C43.1303 6.40416 42.378 6.693 41.7862 7.26891C41.1943 7.8457 40.8984 8.6059 40.8984 9.54951V15.7295H38.5389V15.7303Z" fill="#2190EC"/>
<path d="M46.1791 4.26953H48.6511L51.123 13.4832H52.359L55.0561 4.26953H57.528L52.8091 19.9998H50.3371L51.6857 15.7301H49.3262L46.18 4.26953H46.1791Z" fill="#2190EC"/>
<path d="M66.8401 6.40415L68.4429 4.26885H69.7914V1.79688H72.1509V4.26885H75.6338V6.40415H72.1509V13.595H75.7463V15.7294H69.7914V6.40326H66.8401V6.40415Z" fill="#2190EC"/>
<path d="M78.7914 14.2354C77.66 13.0898 77.0947 11.6774 77.0947 9.99934C77.0947 8.32122 77.66 6.9098 78.7914 5.7633C79.9229 4.61768 81.3042 4.04443 82.9371 4.04443C84.57 4.04443 85.9522 4.61768 87.0828 5.7633C88.2142 6.90892 88.7795 8.32122 88.7795 9.99934V10.7861H79.4533C79.6332 11.7297 80.0452 12.4713 80.6893 13.0109C81.3334 13.5505 82.0821 13.8198 82.9362 13.8198C83.9844 13.8198 84.8234 13.5576 85.4534 13.033C85.7378 12.8231 85.985 12.5608 86.195 12.2463H88.667C88.3524 12.9808 87.9555 13.6028 87.4762 14.1113C86.2473 15.3402 84.7348 15.9542 82.9371 15.9542C81.3042 15.9542 79.922 15.381 78.7914 14.2354ZM79.5667 8.87587H86.3084C86.1737 8.12719 85.8175 7.49014 85.2407 6.96562C84.6639 6.4411 83.8958 6.17884 82.9371 6.17884C82.1282 6.17884 81.4087 6.4225 80.7797 6.90892C80.1506 7.39623 79.7457 8.05188 79.5658 8.87498L79.5667 8.87587Z" fill="#2190EC"/>
<path d="M91.7681 14.27C90.6747 13.1465 90.1281 11.7236 90.1281 10.0003C90.1281 8.27701 90.6747 6.85408 91.7681 5.73061C92.8614 4.60714 94.225 4.04541 95.8579 4.04541C97.6858 4.04541 99.176 4.74182 100.33 6.13552C100.824 6.77965 101.169 7.46897 101.364 8.20259H98.8916C98.7871 7.82869 98.5922 7.49112 98.3077 7.19165C97.7239 6.51739 96.907 6.1807 95.8579 6.1807C94.9285 6.1807 94.1541 6.53245 93.5321 7.23683C92.9101 7.94121 92.5991 8.86267 92.5991 10.0012C92.5991 11.1397 92.9101 12.0612 93.5321 12.7656C94.1541 13.4699 94.9285 13.8217 95.8579 13.8217C96.9371 13.8217 97.7832 13.485 98.3972 12.8107C98.6666 12.5113 98.8695 12.1746 99.0041 11.7998H101.364C101.169 12.5635 100.824 13.2608 100.33 13.8899C99.1911 15.2686 97.7008 15.957 95.8579 15.957C94.225 15.957 92.8614 15.3953 91.7681 14.2718V14.27Z" fill="#2190EC"/>
<path d="M103.274 15.7303V0H105.633V5.84238H105.746C105.926 5.54291 106.203 5.24343 106.578 4.94396C107.387 4.34501 108.308 4.04466 109.341 4.04466C110.764 4.04466 111.869 4.45665 112.656 5.28064C113.443 6.10464 113.835 7.30342 113.835 8.87609V15.7303H111.476V9.10114C111.476 8.09728 111.254 7.36012 110.813 6.88787C110.371 6.41563 109.693 6.17995 108.779 6.17995C107.866 6.17995 107.113 6.49094 106.521 7.11292C105.929 7.7349 105.633 8.54738 105.633 9.55123V15.7312H103.274V15.7303Z" fill="#2190EC"/>
<path d="M66.2845 4.26953H68.7564L64.0375 19.9998H61.5656L66.2845 4.26953Z" fill="#2190EC"/>
<path d="M60.6698 4.26953H63.1418L58.4229 19.9998H55.9509L60.6698 4.26953Z" fill="#2190EC"/>
</g>
<defs>
<clipPath id="clip0_2033_720">
<rect width="113.836" height="20" fill="white"/>
</clipPath>
</defs>
</svg>
