<svg width="126" height="126" viewBox="0 0 126 126" fill="none" xmlns="http://www.w3.org/2000/svg">
<path d="M43.9944 63.0004L56.6469 75.7054L82.0044 50.2954" stroke="url(#paint0_linear_302_1106)" stroke-width="7.875" stroke-linecap="round" stroke-linejoin="round"/>
<path d="M56.4369 12.8617C60.0594 9.7642 65.9919 9.7642 69.6669 12.8617L77.9619 20.0017C79.5369 21.3667 82.4769 22.4692 84.5769 22.4692H93.5019C99.0669 22.4692 103.634 27.0367 103.634 32.6017V41.5267C103.634 43.5742 104.737 46.5667 106.102 48.1417L113.242 56.4367C116.339 60.0592 116.339 65.9917 113.242 69.6667L106.102 77.9617C104.737 79.5367 103.634 82.4767 103.634 84.5767V93.5017C103.634 99.0667 99.0669 103.634 93.5019 103.634H84.5769C82.5294 103.634 79.5369 104.737 77.9619 106.102L69.6669 113.242C66.0444 116.339 60.1119 116.339 56.4369 113.242L48.1419 106.102C46.5669 104.737 43.6269 103.634 41.5269 103.634H32.4444C26.8794 103.634 22.3119 99.0667 22.3119 93.5017V84.5242C22.3119 82.4767 21.2094 79.5367 19.8969 77.9617L12.8094 69.6142C9.76438 65.9917 9.76438 60.1117 12.8094 56.4892L19.8969 48.1417C21.2094 46.5667 22.3119 43.6267 22.3119 41.5792V32.5492C22.3119 26.9842 26.8794 22.4167 32.4444 22.4167H41.5269C43.5744 22.4167 46.5669 21.3142 48.1419 19.9492L56.4369 12.8617Z" stroke="url(#paint1_linear_302_1106)" stroke-width="7.875" stroke-linecap="round" stroke-linejoin="round"/>
<defs>
<linearGradient id="paint0_linear_302_1106" x1="62.9994" y1="50.2954" x2="62.9994" y2="75.7054" gradientUnits="userSpaceOnUse">
<stop stop-color="#A8D8FF"/>
<stop offset="1" stop-color="white"/>
</linearGradient>
<linearGradient id="paint1_linear_302_1106" x1="63.0453" y1="10.5386" x2="63.0453" y2="115.565" gradientUnits="userSpaceOnUse">
<stop stop-color="#A8D8FF"/>
<stop offset="1" stop-color="white"/>
</linearGradient>
</defs>
</svg>
