<svg width="74" height="27" viewBox="0 0 74 27" fill="none" xmlns="http://www.w3.org/2000/svg">
<rect x="0.326077" y="0.326077" width="72.389" height="26.0861" rx="13.0431" fill="white" stroke="white" stroke-width="0.652153"/>
<path d="M18.5532 7.71704V10.1397C18.5532 10.5626 18.538 10.9651 18.5074 11.3472C18.4819 11.7293 18.4615 11.9993 18.4462 12.1573H18.5685C18.7519 11.8618 18.9685 11.6223 19.2181 11.4389C19.4729 11.2555 19.7531 11.1205 20.0588 11.0338C20.3645 10.9472 20.6931 10.9039 21.0447 10.9039C21.6612 10.9039 22.1987 11.0135 22.6572 11.2326C23.1158 11.4465 23.4724 11.7854 23.7272 12.249C23.9819 12.7075 24.1093 13.3036 24.1093 14.0373V19.6086H21.7783V14.6181C21.7783 14.0068 21.6662 13.5457 21.4421 13.2349C21.2179 12.9241 20.8714 12.7687 20.4027 12.7687C19.934 12.7687 19.5646 12.8782 19.2946 13.0973C19.0245 13.3113 18.8335 13.6297 18.7214 14.0526C18.6093 14.4704 18.5532 14.9824 18.5532 15.5887V19.6086H16.2223V7.71704H18.5532ZM28.8399 7.71704V10.1397C28.8399 10.5626 28.8246 10.9651 28.7941 11.3472C28.7686 11.7293 28.7482 11.9993 28.7329 12.1573H28.8552C29.0386 11.8618 29.2552 11.6223 29.5048 11.4389C29.7596 11.2555 30.0398 11.1205 30.3455 11.0338C30.6512 10.9472 30.9798 10.9039 31.3314 10.9039C31.9478 10.9039 32.4854 11.0135 32.9439 11.2326C33.4025 11.4465 33.7591 11.7854 34.0138 12.249C34.2686 12.7075 34.396 13.3036 34.396 14.0373V19.6086H32.065V14.6181C32.065 14.0068 31.9529 13.5457 31.7288 13.2349C31.5046 12.9241 31.1581 12.7687 30.6894 12.7687C30.2207 12.7687 29.8513 12.8782 29.5812 13.0973C29.3112 13.3113 29.1202 13.6297 29.0081 14.0526C28.896 14.4704 28.8399 14.9824 28.8399 15.5887V19.6086H26.509V7.71704H28.8399ZM36.4671 18.5158C36.4671 18.0369 36.597 17.7006 36.8568 17.507C37.1218 17.3134 37.4402 17.2166 37.8121 17.2166C38.1739 17.2166 38.4847 17.3134 38.7445 17.507C39.0094 17.7006 39.1419 18.0369 39.1419 18.5158C39.1419 18.9743 39.0094 19.3055 38.7445 19.5093C38.4847 19.7131 38.1739 19.815 37.8121 19.815C37.4402 19.815 37.1218 19.7131 36.8568 19.5093C36.597 19.3055 36.4671 18.9743 36.4671 18.5158ZM46.0277 10.9039C46.1449 10.9039 46.2799 10.9116 46.4328 10.9269C46.5907 10.937 46.7181 10.9523 46.8149 10.9727L46.6391 13.1584C46.5627 13.133 46.4532 13.1151 46.3105 13.1049C46.1729 13.0897 46.0532 13.082 45.9513 13.082C45.6507 13.082 45.3577 13.1202 45.0724 13.1967C44.7922 13.2731 44.54 13.3979 44.3158 13.5711C44.0916 13.7393 43.9133 13.9634 43.7809 14.2437C43.6535 14.5188 43.5898 14.8576 43.5898 15.2601V19.6086H41.2589V11.0644H43.0243L43.3682 12.5012H43.4828C43.6509 12.2108 43.8598 11.9458 44.1095 11.7064C44.3642 11.4618 44.6521 11.2682 44.9731 11.1256C45.2992 10.9778 45.6507 10.9039 46.0277 10.9039ZM56.2074 11.0644V19.6086H54.4191L54.1058 18.5158H53.9835C53.8001 18.8062 53.5708 19.0431 53.2957 19.2265C53.0205 19.4099 52.7174 19.545 52.3862 19.6316C52.055 19.7182 51.7111 19.7615 51.3545 19.7615C50.7431 19.7615 50.2107 19.6545 49.7572 19.4405C49.3038 19.2214 48.9497 18.8826 48.6949 18.4241C48.4453 17.9655 48.3205 17.3694 48.3205 16.6357V11.0644H50.6514V16.0549C50.6514 16.6663 50.7609 17.1274 50.98 17.4382C51.1991 17.749 51.5481 17.9044 52.027 17.9044C52.5009 17.9044 52.8728 17.7974 53.1428 17.5834C53.4129 17.3643 53.6014 17.0459 53.7084 16.6281C53.8204 16.2052 53.8765 15.6906 53.8765 15.0843V11.0644H56.2074Z" fill="#2190EC"/>
</svg>
